HIERARCHY
ROOT SpineBase
{
  OFFSET 0.000000 0.000000 0.000000
  CHANNELS 6 Xposition Yposition Zposition Zrotation Xrotation Yrotation
  JOINT SpineMid
  {
    OFFSET 0.000000 26.957782 0.000000
    CHANNELS 3 Zrotation Xrotation Yrotation
    JOINT SpineShoulder
    {
      OFFSET 0.014573 20.055987 -0.755015
      CHANNELS 3 Zrotation Xrotation Yrotation
      JOINT Neck
      {
        OFFSET -0.002770 6.651678 -0.552404
        CHANNELS 3 Zrotation Xrotation Yrotation
        JOINT Head
        {
          OFFSET 1.772041 12.426683 -0.308739
          CHANNELS 3 Zrotation Xrotation Yrotation
          End Site
          {
            OFFSET 0 0 0
          }
        }
      }
      JOINT ShoulderLeft
      {
        OFFSET -13.330678 -2.337313 -5.809762
        CHANNELS 3 Zrotation Xrotation Yrotation
        JOINT ElbowLeft
        {
          OFFSET -4.626361 -22.253834 -2.004262
          CHANNELS 3 Zrotation Xrotation Yrotation
          JOINT WristLeft
          {
            OFFSET 0.646970 -23.014720 -6.865567
            CHANNELS 3 Zrotation Xrotation Yrotation
            JOINT HandLeft
            {
              OFFSET 1.018774 -3.400619 0.342098
              CHANNELS 3 Zrotation Xrotation Yrotation
              JOINT HandTipLeft
              {
                OFFSET 0.430778 -4.393072 -0.550150
                CHANNELS 3 Zrotation Xrotation Yrotation
                End Site
                {
                  OFFSET 0 0 0
                }
              }
              JOINT ThumbLeft
              {
                OFFSET -3.793544 -0.337177 -2.135371
                CHANNELS 3 Zrotation Xrotation Yrotation
                End Site
                {
                  OFFSET 0 0 0
                }
              }
            }
          }
        }
      }
      JOINT ShoulderRight
      {
        OFFSET 12.972483 -3.274408 3.146385
        CHANNELS 3 Zrotation Xrotation Yrotation
        JOINT ElbowRight
        {
          OFFSET 1.949049 -26.738231 1.150377
          CHANNELS 3 Zrotation Xrotation Yrotation
          JOINT WristRight
          {
            OFFSET 1.321662 -20.613612 -5.291553
            CHANNELS 3 Zrotation Xrotation Yrotation
            JOINT HandRight
            {
              OFFSET -2.006793 -4.278613 -0.757076
              CHANNELS 3 Zrotation Xrotation Yrotation
              JOINT HandTipRight
              {
                OFFSET 0.398419 -5.772887 -0.535016
                CHANNELS 3 Zrotation Xrotation Yrotation
                End Site
                {
                  OFFSET 0 0 0
                }
              }
              JOINT ThumbRight
              {
                OFFSET -3.188869 1.104324 -1.601610
                CHANNELS 3 Zrotation Xrotation Yrotation
                End Site
                {
                  OFFSET 0 0 0
                }
              }
            }
          }
        }
      }
    }
  }
  JOINT HipLeft
  {
    OFFSET -6.003277 1.110717 -5.020037
    CHANNELS 3 Zrotation Xrotation Yrotation
    JOINT KneeLeft
    {
      OFFSET -5.770046 -29.673248 1.688727
      CHANNELS 3 Zrotation Xrotation Yrotation
      JOINT AnkleLeft
      {
        OFFSET -3.545077 -32.515044 7.786887
        CHANNELS 3 Zrotation Xrotation Yrotation
        JOINT FootLeft
        {
          OFFSET 3.577388 -6.862760 -0.201348
          CHANNELS 3 Zrotation Xrotation Yrotation
          End Site
          {
            OFFSET 0 0 0
          }
        }
      }
    }
  }
  JOINT HipRight
  {
    OFFSET 5.705560 0.328858 -1.291173
    CHANNELS 3 Zrotation Xrotation Yrotation
    JOINT KneeRight
    {
      OFFSET -4.516323 -30.395758 4.917132
      CHANNELS 3 Zrotation Xrotation Yrotation
      JOINT AnkleRight
      {
        OFFSET -5.598454 -33.186264 7.729030
        CHANNELS 3 Zrotation Xrotation Yrotation
        JOINT FootRight
        {
          OFFSET 2.030100 -2.585369 -9.969493
          CHANNELS 3 Zrotation Xrotation Yrotation
          End Site
          {
            OFFSET 0 0 0
          }
        }
      }
    }
  }
}
MOTION
Frames: 15
Frame Time: 0.033333
20.407801 69.361045 368.377915 -0.000000 0.000000 -17.664897 0.000000 0.000000 17.664897 -0.000000 0.000000 0.000000 -0.000000 0.000000 0.000000 0.000000 0.000000 0.000000 -0.000000 0.000000 0.000000 -0.000000 0.000000 0.000000 -0.000000 0.000000 0.000000 -0.000000 0.000000 0.000000 0.000000 0.000000 0.000000 0.000000 0.000000 0.000000 -0.000000 0.000000 0.000000 -0.000000 0.000000 0.000000 -0.000000 0.000000 0.000000 -0.000000 0.000000 0.000000 0.000000 0.000000 0.000000 0.000000 0.000000 0.000000 0.000000 0.000000 17.664897 -0.000000 0.000000 0.000000 -0.000000 0.000000 0.000000 0.000000 0.000000 0.000000 0.000000 0.000000 17.664897 -0.000000 0.000000 0.000000 -0.000000 0.000000 0.000000 0.000000 0.000000 0.000000
20.376048 69.359320 368.348664 -0.119309 -0.024788 -17.568877 0.106261 0.059646 17.568796 -0.000000 0.000000 0.000000 -0.000000 0.000000 0.000000 0.000000 0.000000 0.000000 -0.000000 0.000000 0.000000 -0.000000 0.000000 0.000000 -1.199380 1.475236 0.338262 3.485627 -1.798002 -0.558592 0.000000 0.000000 0.000000 0.000000 0.000000 0.000000 -0.000000 0.000000 0.000000 -0.000000 0.000000 0.000000 0.480050 0.960730 -0.539844 -1.560757 -1.734410 0.555448 0.000000 0.000000 0.000000 0.000000 0.000000 0.000000 0.106261 0.059646 17.568796 -0.000000 0.000000 0.000000 2.305920 -3.607820 -1.858376 0.000000 0.000000 0.000000 0.106261 0.059646 17.568796 -0.000000 0.000000 0.000000 0.566038 1.180804 -1.208571 0.000000 0.000000 0.000000
20.355277 69.353211 368.329234 -0.225201 -0.064189 -17.493027 0.195493 0.128913 17.492681 -0.000000 0.000000 0.000000 -0.000000 0.000000 0.000000 0.000000 0.000000 0.000000 -0.000000 0.000000 0.000000 -0.000000 0.000000 0.000000 -1.927303 2.536481 0.613235 5.537395 -3.162116 -0.857673 0.000000 0.000000 0.000000 0.000000 0.000000 0.000000 -0.000000 0.000000 0.000000 -0.000000 0.000000 0.000000 0.966888 1.478376 -0.878458 -2.722549 -2.696715 0.873809 0.000000 0.000000 0.000000 0.000000 0.000000 0.000000 0.195493 0.128913 17.492681 -0.000000 0.000000 0.000000 4.121589 -6.525345 -3.234961 0.000000 0.000000 0.000000 0.352894 0.978420 17.443316 0.278577 -1.734484 0.382614 0.119687 2.554609 -2.034197 0.000000 0.000000 0.000000
20.345490 69.342720 368.319624 -0.317643 -0.118194 -17.437217 0.267629 0.207946 17.436404 -0.000000 0.000000 0.000000 -0.000000 0.000000 0.000000 0.000000 0.000000 0.000000 -0.000000 0.000000 0.000000 -0.000000 0.000000 0.000000 -2.276797 3.285978 0.828247 6.466831 -4.185845 -1.031143 0.000000 0.000000 0.000000 0.000000 0.000000 0.000000 -0.000000 0.000000 0.000000 -0.000000 0.000000 0.000000 1.458392 1.571922 -1.018982 -3.539368 -2.913822 1.005072 0.000000 0.000000 0.000000 0.000000 0.000000 0.000000 0.267629 0.207946 17.436404 -0.000000 0.000000 0.000000 5.472880 -8.661355 -4.172908 0.000000 0.000000 0.000000 0.480664 1.385893 17.365760 0.392448 -2.391887 0.535460 -0.252861 2.601784 -1.980924 0.000000 0.000000 0.000000
20.346686 69.327847 368.319834 -0.396608 -0.186791 -17.401384 0.322598 0.296849 17.399901 -0.000000 0.000000 0.000000 -0.000000 0.000000 0.000000 0.000000 0.000000 0.000000 -0.000000 0.000000 0.000000 -0.000000 0.000000 0.000000 -2.301335 3.787316 0.988807 6.453546 -4.935402 -1.146570 0.000000 0.000000 0.000000 0.000000 0.000000 0.000000 -0.674087 0.654851 0.022601 0.673873 -0.655072 -0.014896 1.957009 1.252047 -0.960787 -4.036783 -2.397390 0.972056 0.000000 0.000000 0.000000 0.000000 0.000000 0.000000 0.322598 0.296849 17.399901 -0.000000 0.000000 0.000000 6.388003 -9.976458 -4.715319 0.000000 0.000000 0.000000 0.571976 1.724267 17.311498 0.503717 -2.908144 0.662919 -1.148039 1.632428 -0.527290 0.000000 0.000000 0.000000
20.358865 69.308590 368.329865 -0.462077 -0.269955 -17.385536 0.360314 0.395684 17.383203 -0.000000 0.000000 0.000000 -0.000000 0.000000 0.000000 0.000000 0.000000 0.000000 -0.000000 0.000000 0.000000 -0.000000 0.000000 0.000000 -2.027219 4.078878 1.100468 5.591286 -5.453809 -1.236341 0.000000 0.000000 0.000000 0.000000 0.000000 0.000000 -0.751233 0.736165 0.026187 0.750959 -0.736445 -0.016535 2.469429 0.521510 -0.699362 -4.216001 -1.142833 0.774198 0.000000 0.000000 0.000000 0.000000 0.000000 0.000000 0.360314 0.395684 17.383203 -0.000000 0.000000 0.000000 6.889125 -10.462396 -4.896315 0.000000 0.000000 0.000000 0.624657 1.985144 17.281374 0.619970 -3.281622 0.764933 -1.942055 0.073791 0.391506 0.000000 0.000000 0.000000
20.381333 69.289259 368.360379 -0.523532 -0.374918 -17.374042 -0.287960 -0.035510 17.343196 0.002182 0.007768 -0.036853 0.849516 1.229722 -0.064917 0.000000 0.000000 0.000000 0.806405 0.315995 0.064893 -0.000000 0.000000 0.000000 -0.672822 4.009449 1.163631 1.188263 -4.760281 -1.221087 0.000000 0.000000 0.000000 0.000000 0.000000 0.000000 0.004742 1.128137 0.099843 0.800315 -0.813427 -0.019165 2.655012 -1.419702 0.231973 -2.650068 1.428915 -0.166019 0.000000 0.000000 0.000000 0.000000 0.000000 0.000000 0.387709 0.514131 17.370590 -0.000000 0.000000 0.000000 6.461018 -13.796905 -6.460018 0.000000 0.000000 0.000000 0.652722 2.174389 17.261434 0.881475 -3.584089 0.892804 -3.662475 -3.375978 3.514703 0.000000 0.000000 0.000000
20.413908 69.257856 368.392638 -0.572550 -0.500837 -17.408006 -0.291322 -0.027729 17.374981 0.025359 -0.000680 -0.037475 0.732274 1.491216 -0.084282 0.000000 0.000000 0.000000 0.832939 0.441838 0.066168 -0.000000 0.000000 0.000000 -0.042146 4.800323 1.442639 -2.620888 -6.999628 -1.618553 0.000000 0.000000 0.000000 0.000000 0.000000 0.000000 0.103294 1.282049 0.107137 0.728130 -0.841470 -0.024646 3.201153 -2.890146 0.885594 -1.580187 4.299281 -0.872248 0.000000 0.000000 0.000000 0.000000 0.000000 0.000000 -0.451147 0.940883 17.270658 0.722840 -0.530102 0.147705 7.752721 -3.742820 -1.861700 0.000000 0.000000 0.000000 0.644504 2.293593 17.292244 0.833869 -3.571205 0.875270 -5.354970 -9.014918 8.113417 0.000000 0.000000 0.000000
20.460607 69.218840 368.434935 -0.591667 -0.629526 -17.460247 -0.281383 -0.007334 17.426810 0.043464 -0.002322 -0.036377 0.439824 1.601140 -0.087158 0.000000 0.000000 0.000000 0.818173 0.555412 0.064240 -0.000000 0.000000 0.000000 0.146669 4.715584 1.427524 -2.650450 -7.490814 -1.689496 0.000000 0.000000 0.000000 0.000000 0.000000 0.000000 0.118360 1.354969 0.104210 0.698393 -0.800728 -0.023423 3.900915 -4.181954 1.446676 -2.600664 8.362483 -1.114122 0.000000 0.000000 0.000000 0.000000 0.000000 0.000000 -0.622665 1.275383 17.276335 0.805508 -0.771164 0.201419 6.931609 1.683172 0.554158 0.000000 0.000000 0.000000 0.446567 2.002600 17.352460 1.276292 -3.162085 0.896403 -7.705111 -20.689132 16.537633 0.000000 0.000000 0.000000
20.511435 69.169108 368.488052 -0.606624 -0.768830 -17.462172 -0.246542 0.033812 17.429428 0.057884 0.004086 -0.033991 0.113003 1.684221 -0.088967 0.000000 0.000000 0.000000 0.773041 0.659410 0.060055 -0.000000 0.000000 0.000000 0.736825 4.594663 1.424727 -2.597195 -7.741689 -1.785107 0.000000 0.000000 0.000000 0.000000 0.000000 0.000000 0.045503 1.338390 0.091043 0.726461 -0.680027 -0.013994 4.901236 -5.604060 2.061848 -1.478851 12.585996 -1.901497 0.000000 0.000000 0.000000 0.000000 0.000000 0.000000 -0.789488 1.465103 17.258508 0.923225 -0.862111 0.227390 6.904148 6.849094 2.862414 0.000000 0.000000 0.000000 0.245383 2.179039 17.319604 1.538313 -3.323143 0.980824 -8.149575 -24.296941 18.743401 0.000000 0.000000 0.000000
20.575271 69.130361 368.516361 -0.597439 -0.895741 -17.540469 -0.205059 0.070211 17.509469 0.058291 0.016482 -0.031332 -0.253974 1.697044 -0.083338 0.000000 0.000000 0.000000 0.712733 0.751283 0.054861 -0.000000 0.000000 0.000000 1.585055 6.043128 1.889935 -3.133359 -10.112564 -2.519465 0.000000 0.000000 0.000000 0.000000 0.000000 0.000000 0.003642 1.317538 0.078524 0.708288 -0.567125 -0.007356 5.766879 -5.679141 1.995323 -1.399331 10.393675 -2.066431 0.000000 0.000000 0.000000 0.000000 0.000000 0.000000 -0.984052 1.797593 17.291776 0.998940 -1.110089 0.282719 7.061398 10.028216 4.262962 0.000000 0.000000 0.000000 0.249241 2.758570 17.363920 1.231431 -4.071416 1.047846 -8.145092 -31.182657 24.390274 0.000000 0.000000 0.000000
20.661958 69.101714 368.514389 -0.553125 -0.991455 -17.641960 -0.177999 0.086809 17.613620 0.041488 0.029805 -0.029251 -0.562304 1.726154 -0.081519 0.000000 0.000000 0.000000 0.654163 0.825621 0.049987 -0.000000 0.000000 0.000000 2.505630 6.752865 2.128098 -3.357998 -10.970788 -2.905827 0.000000 0.000000 0.000000 0.000000 0.000000 0.000000 -0.049143 1.271780 0.065199 0.702746 -0.446864 0.000402 7.093401 -6.573734 2.328869 -1.784336 12.036792 -2.421768 0.000000 0.000000 0.000000 0.000000 0.000000 0.000000 -1.273548 2.269725 17.315382 0.822715 -2.323257 0.388914 5.365893 10.686925 4.386195 0.000000 0.000000 0.000000 0.392255 2.900452 17.496115 0.667212 -4.091996 0.916457 -7.776071 -31.194200 24.380828 0.000000 0.000000 0.000000
20.746924 69.082866 368.487694 -0.450039 -1.018303 -17.698162 -0.173194 0.115411 17.674926 0.033563 0.037412 -0.024556 -1.238564 1.551139 -0.070019 0.000000 0.000000 0.000000 0.545729 0.818737 0.041788 -0.000000 0.000000 0.000000 2.427961 6.813896 2.142452 -1.739242 -11.856060 -2.939078 0.000000 0.000000 0.000000 0.000000 0.000000 0.000000 0.545729 0.818737 0.041788 -0.000000 0.000000 0.000000 7.015338 -5.773840 1.892880 -3.422666 9.778909 -1.689247 0.000000 0.000000 0.000000 0.000000 0.000000 0.000000 -1.583889 2.947341 17.251515 0.626189 -3.475554 0.520657 7.406952 9.549520 3.359680 0.000000 0.000000 0.000000 0.675128 3.413621 17.568093 -0.265543 -4.721217 0.811683 -7.217898 -23.735475 18.693161 0.000000 0.000000 0.000000
20.859688 69.067208 368.407785 -0.385130 -1.074709 -17.649617 -0.151437 0.145531 17.630140 0.035218 0.044481 -0.020188 -1.766291 1.734693 -0.097332 0.000000 0.000000 0.000000 0.449531 0.845939 0.034387 -0.000000 0.000000 0.000000 2.594497 7.938593 2.463189 -0.778075 -13.508068 -3.295058 0.000000 0.000000 0.000000 0.000000 0.000000 0.000000 -0.480766 0.649108 -0.007832 0.930174 0.197044 0.052757 7.757358 -4.680379 1.185467 -5.931655 7.756737 -0.690552 0.000000 0.000000 0.000000 0.000000 0.000000 0.000000 -1.787783 3.895548 17.056073 0.389806 -4.986256 0.716783 8.424116 5.181089 0.946323 0.000000 0.000000 0.000000 1.161720 3.637471 17.590547 -1.539240 -4.941188 0.545845 -6.199967 -20.526914 15.966220 0.000000 0.000000 0.000000
21.010254 69.059065 368.255626 -0.307828 -1.104392 -17.653726 -0.132866 0.166697 17.638432 0.036792 0.045700 -0.015526 -2.578732 1.657702 -0.095394 0.000000 0.000000 0.000000 0.346645 0.859738 0.026562 -0.795825 -0.269473 0.228166 3.814865 10.409498 2.838760 0.756409 -14.546846 -3.732298 0.000000 0.000000 0.000000 0.000000 0.000000 0.000000 -0.580393 0.774360 -0.006312 1.576655 -1.001348 -0.186180 5.374537 -1.151670 0.241407 -5.205087 5.362894 0.207386 0.000000 0.000000 0.000000 0.000000 0.000000 0.000000 -1.714157 5.164449 16.877374 -0.441141 -6.914456 0.858287 9.284229 -1.508831 -2.439462 0.000000 0.000000 0.000000 1.717579 3.480190 17.714707 -2.996836 -4.719398 0.165971 -3.048196 -8.984539 7.013296 0.000000 0.000000 0.000000
